<svg id="visual" viewBox="0 0 540 960" width="540" height="960" xmlns="http://www.w3.org/2000/svg" xmlns:xlink="http://www.w3.org/1999/xlink" version="1.1"><g><g transform="translate(321 502)"><path d="M61.5 -58.6C79.9 -43.2 95 -21.6 98.4 3.5C101.9 28.6 93.8 57.1 75.5 75.7C57.1 94.2 28.6 102.7 2.9 99.8C-22.8 97 -45.6 82.7 -61.5 64.1C-77.4 45.6 -86.4 22.8 -89.8 -3.4C-93.2 -29.7 -91.1 -59.4 -75.3 -74.8C-59.4 -90.1 -29.7 -91.3 -4 -87.2C21.6 -83.2 43.2 -74 61.5 -58.6Z" fill="#d5ceff"></path></g><g transform="translate(168 727)"><path d="M50.7 -49.3C62.9 -38.4 68.2 -19.2 69.2 1C70.2 21.1 66.8 42.3 54.5 56.7C42.3 71.1 21.1 78.7 -0.1 78.8C-21.4 78.9 -42.8 71.6 -54.4 57.2C-66.1 42.8 -67.9 21.4 -65 3C-62 -15.5 -54.2 -30.9 -42.5 -41.7C-30.9 -52.6 -15.5 -58.8 1.9 -60.7C19.2 -62.6 38.4 -60.1 50.7 -49.3Z" fill="#d5ceff"></path></g><g transform="translate(289 217)"><path d="M46.3 -48.9C57.3 -35.2 61.9 -17.6 60.4 -1.5C58.9 14.7 51.4 29.3 40.4 40C29.3 50.6 14.7 57.3 -1.8 59.1C-18.3 61 -36.7 58 -47.3 47.3C-58 36.7 -61 18.3 -61.3 -0.3C-61.6 -18.9 -59.1 -37.8 -48.5 -51.5C-37.8 -65.1 -18.9 -73.5 -0.6 -72.8C17.6 -72.2 35.2 -62.5 46.3 -48.9Z" fill="#d5ceff"></path></g></g></svg>