<svg width="24" height="24" viewBox="0 0 24 24" fill="none" xmlns="http://www.w3.org/2000/svg">
<g clip-path="url(#clip0_213_2314)">
<g clip-path="url(#clip1_213_2314)">
<path d="M21.0008 9.46114C21.0008 8.32124 20.6348 7.25043 19.9361 6.31779C20.2023 5.41969 20.2688 4.27979 20.2023 2.96718C20.169 2.41451 19.7365 2 19.2042 2C18.9047 2 16.3761 2.03454 14.9121 3.38169C13.6478 3.1399 12.3169 3.1399 11.0193 3.38169C9.58862 2.03454 7.05997 2 6.72726 2C6.19491 2 5.76238 2.41451 5.7291 2.96718C5.62929 4.27979 5.72911 5.41969 5.99528 6.31779C5.29657 7.28497 4.93058 8.35579 4.93058 9.46114C4.93058 11.8791 6.72726 14.0553 9.45554 15.0915C9.35572 15.2988 9.28918 15.5406 9.22264 15.7824C6.328 15.4715 4.96386 12.7427 4.89731 12.639C4.66441 12.1209 4.06552 11.9136 3.56644 12.19C3.06737 12.4318 2.86774 13.0535 3.13391 13.5717C3.20045 13.7444 5.0304 17.4404 9.05628 17.8549V20.9637C9.05628 21.5509 9.48881 22 10.0544 22H15.877C16.4426 22 16.8751 21.5509 16.8751 20.9637V16.8532C16.8751 16.2314 16.742 15.6442 16.5091 15.1261C19.2042 14.0553 21.0008 11.9136 21.0008 9.46114Z" fill="#6070FF"/>
</g>
</g>
<defs>
<clipPath id="clip0_213_2314">
<rect width="18" height="20" fill="white" transform="translate(3 2)"/>
</clipPath>
<clipPath id="clip1_213_2314">
<rect width="18" height="20" fill="white" transform="translate(3 2)"/>
</clipPath>
</defs>
</svg>
