<?xml version="1.0" encoding="UTF-8" standalone="no"?>
<!-- Created with Inkscape (http://www.inkscape.org/) -->

<svg
   version="1.1"
   id="svg291"
   xml:space="preserve"
   width="682.66669"
   height="682.66669"
   viewBox="0 0 682.66669 682.66669"
   xmlns="http://www.w3.org/2000/svg"
   xmlns:svg="http://www.w3.org/2000/svg"><defs
     id="defs295"><clipPath
       clipPathUnits="userSpaceOnUse"
       id="clipPath307"><path
         d="M 0,512 H 512 V 0 H 0 Z"
         id="path305" /></clipPath></defs><g
     id="g297"
     transform="matrix(1.3333333,0,0,-1.3333333,0,682.66667)"><path
       d="M 151,76 H 91 v 240 h 60 z"
       style="fill:none;stroke:#000000;stroke-width:30;stroke-linecap:round;stroke-linejoin:round;stroke-miterlimit:10;stroke-dasharray:none;stroke-opacity:1"
       id="path299" /><g
       id="g301"><g
         id="g303"
         clip-path="url(#clipPath307)"><g
           id="g309"
           transform="translate(151,406)"><path
             d="m 0,0 c 0,-16.569 -13.432,-30 -30,-30 -16.568,0 -30,13.431 -30,30 0,16.569 13.432,30 30,30 C -13.432,30 0,16.569 0,0 Z"
             style="fill:none;stroke:#000000;stroke-width:30;stroke-linecap:round;stroke-linejoin:round;stroke-miterlimit:10;stroke-dasharray:none;stroke-opacity:1"
             id="path311" /></g><g
           id="g313"
           transform="translate(271,211)"><path
             d="M 0,0 C 0,24.853 20.147,45 45,45 69.853,45 90,24.853 90,0 v -135 h 60 V 26.459 c 0,12.193 -2.839,24.219 -8.292,35.125 C 115.127,114.745 42.137,117.137 6.996,81.996 L 0,75 v 30 H -60 V -135 H 0 Z"
             style="fill:none;stroke:#000000;stroke-width:30;stroke-linecap:round;stroke-linejoin:round;stroke-miterlimit:10;stroke-dasharray:none;stroke-opacity:1"
             id="path315" /></g><g
           id="g317"
           transform="translate(436,15)"><path
             d="m 0,0 h -360 c -33.137,0 -61,27.863 -61,61 v 360 c 0,33.137 27.863,61 61,61 H 0 c 33.137,0 61,-27.863 61,-61 V 61 C 61,27.863 33.137,0 0,0 Z"
             style="fill:none;stroke:#000000;stroke-width:30;stroke-linecap:round;stroke-linejoin:round;stroke-miterlimit:10;stroke-dasharray:none;stroke-opacity:1"
             id="path319" /></g></g></g></g></svg>
